<?xml version="1.0" encoding="UTF-8" standalone="no"?>
<!DOCTYPE svg PUBLIC "-//W3C//DTD SVG 1.1//EN" "http://www.w3.org/Graphics/SVG/1.1/DTD/svg11.dtd">
<svg width="100%" height="100%" viewBox="0 0 2084 2084" version="1.1" xmlns="http://www.w3.org/2000/svg" xmlns:xlink="http://www.w3.org/1999/xlink" xml:space="preserve" xmlns:serif="http://www.serif.com/" style="fill-rule:evenodd;clip-rule:evenodd;stroke-linejoin:round;stroke-miterlimit:2;">
    <g transform="matrix(4.16667,0,0,4.16667,0,0)">
        <g transform="matrix(0.301125,0.14718,-0.14718,0.301125,334.601,-18.3282)">
            <path d="M229.5,64C205.938,64.812 155.875,79.812 145.5,90.5C141.688,94.438 139.875,99.688 141,104C142.875,107.812 222,232 222,232C233.75,251 243.375,248 246.5,247C249.625,246.062 259.062,243.188 258,221C256.875,195.062 249.438,79.875 248.5,74.5C247.188,69.625 243,65.875 237.5,64.5C235.438,64 232.875,63.875 229.5,64ZM349,177.5C346.625,177.562 344.562,178.125 342.5,179.5C340,181.125 338.062,183.562 303,231.5C303,231.5 287.188,253.312 287,253.5C282.812,258.562 282.938,265.75 287,272C291.25,278.438 298,281.812 304.5,280C304.5,280 304.562,280.375 304.5,280.5C307.75,279.312 313.5,277.5 324,275C389.5,259.125 391.938,258.688 394.5,257C398.438,254.312 400.312,249.438 400,244C400,243.812 400.062,243.688 400,243.5C398.312,227.438 370.375,185.75 356.5,179C354.062,177.812 351.375,177.438 349,177.5ZM129,242C124.25,241.812 119.938,244.375 117,249C110.75,259 108.312,290.125 110.5,311C111.312,317.938 112.188,324.062 114,327.5C116.5,332.25 120.75,334.812 125.5,335C128.562,335.125 130.875,334.5 188.5,316C188.5,316 213.875,308.062 214,308C220.375,306.375 224.562,300.5 225,293C225.438,285.312 221.5,278.438 215,276C215,276 197.062,268.5 197,268.5C135.062,242.938 132.125,242.062 129,242ZM305.5,312.5C300.75,312.375 295.5,314.625 292,319C287.125,324.938 286.625,333.062 290.5,339L300.5,355.5C334.688,411.062 337.5,414.562 340,416.5C343.812,419.5 348.5,420 353.5,418C368.062,412.188 399.75,372.062 402,356.5C402.75,351.062 401.25,346.5 397.5,343.5C395.062,341.688 393.062,340.938 335.5,322C335.5,322 310.312,313.688 310,313.5C308.5,312.938 307.062,312.562 305.5,312.5ZM235.5,330.5C232.125,331.25 229.188,333.312 227,336C227,336 214.562,351 214.5,351C171.062,401.938 169.562,404 168.5,407C167.875,408.75 167.312,411.125 167.5,413C167.75,415.75 168.938,418.062 171,420.5C181.062,432.438 229.625,450.125 245,447.5C250.375,446.5 253.812,444 255.5,439.5C256.5,436.562 256.812,434.562 257,374L257,347C257.438,340.438 253.438,334.188 246.5,331.5C242.938,330.125 238.875,329.75 235.5,330.5Z" style="fill:rgb(0,177,191);fill-rule:nonzero;"/>
        </g>
        <path d="M364.243,100.023L212.734,144.855C209.661,145.765 207.355,148.319 206.765,151.47L192.867,225.586C191.927,230.6 195.563,235.313 200.651,235.678L203.643,235.892C204.377,236.162 205.143,236.37 205.965,236.429L345.671,246.434C348.669,246.648 351.352,244.579 351.905,241.625L377.049,108.713C378.576,99.139 367.604,98.81 364.243,100.023Z" style="fill:white;fill-rule:nonzero;"/>
        <path d="M367.753,100.841C366.495,100.841 365.382,101.012 364.689,101.262L364.615,101.286L213.107,146.118C210.495,146.891 208.561,149.035 208.057,151.713L194.16,225.829C193.782,227.851 194.286,229.945 195.541,231.574C196.799,233.2 198.694,234.219 200.746,234.365L204.097,234.657C204.832,234.926 205.457,235.072 206.062,235.116L345.767,245.121C348.058,245.302 350.182,243.681 350.613,241.382L375.755,108.468C376.159,105.936 375.575,103.976 374.012,102.682C372.358,101.314 369.851,100.841 367.753,100.841ZM346.101,247.766C345.926,247.766 345.753,247.759 345.576,247.746L205.871,237.742C205.068,237.684 204.27,237.509 203.369,237.193L200.556,236.991C197.758,236.792 195.171,235.403 193.459,233.183C191.743,230.959 191.057,228.103 191.573,225.344L205.47,151.227C206.156,147.573 208.795,144.647 212.361,143.592L363.834,98.771C366.199,97.94 372.044,97.64 375.688,100.653C377.293,101.98 379.055,104.491 378.35,108.919L353.2,241.869C352.555,245.31 349.552,247.766 346.101,247.766Z" style="fill:rgb(68,75,77);fill-rule:nonzero;"/>
        <path d="M345.674,262.385L272.26,332.061C268.811,335.247 263.966,336.353 259.54,335.088C258.883,334.931 258.251,334.693 257.618,334.404L128.17,290.508C127.591,290.219 125.643,286.374 124.272,283.372C123.456,281.634 122.851,280.186 122.824,279.949C122.692,278.606 123.351,277.21 124.8,276.526L188.182,236.606C190.393,235.579 192.842,235.131 195.265,235.29L200.505,235.658C200.558,235.685 200.61,235.685 200.663,235.685L200.899,235.685L341.514,245.849C342.751,245.928 343.62,246.771 343.962,247.771L344.7,249.983L346.411,259.436C346.754,260.411 346.569,261.569 345.674,262.385Z" style="fill:white;fill-rule:nonzero;"/>
        <path d="M128.867,289.353L258.042,333.156C258.773,333.485 259.321,333.682 259.85,333.808C263.913,334.973 268.305,333.921 271.367,331.094L344.786,261.414C345.435,260.821 345.244,260.084 345.17,259.872L343.403,250.219L342.714,248.186C342.64,247.969 342.315,247.219 341.428,247.163L200.806,236.997C200.651,237.004 200.471,236.999 200.283,236.961L195.171,236.603C192.982,236.462 190.732,236.873 188.737,237.801L125.501,277.64C124.352,278.194 124.066,279.117 124.136,279.822C124.169,279.893 124.627,281.029 125.465,282.812C126.938,286.041 128.348,288.673 128.867,289.353ZM263.167,336.911C261.832,336.911 260.489,336.728 259.178,336.355C258.538,336.202 257.828,335.95 257.07,335.599L127.749,291.755C127.242,291.515 126.337,291.062 123.074,283.918C122.089,281.82 121.562,280.528 121.516,280.092C121.317,278.071 122.388,276.21 124.236,275.336L187.479,235.493C190.023,234.297 192.697,233.806 195.349,233.976L200.995,234.372L341.608,244.536C343.27,244.642 344.652,245.718 345.208,247.345L345.949,249.568L347.708,259.202C348.204,260.566 347.79,262.23 346.571,263.349L273.165,333.016C270.424,335.549 266.818,336.911 263.167,336.911Z" style="fill:rgb(68,75,77);fill-rule:nonzero;"/>
        <path d="M364.243,100.023L212.735,144.855C209.661,145.765 207.355,148.319 206.765,151.47L192.867,225.586C191.927,230.6 195.563,235.314 200.65,235.678L340.356,245.683C343.354,245.897 346.037,243.829 346.591,240.874L371.734,106.784C372.549,102.439 368.482,98.769 364.243,100.023Z" style="fill:white;fill-rule:nonzero;"/>
        <path d="M364.615,101.286L213.107,146.118C210.495,146.891 208.561,149.035 208.057,151.713L194.16,225.829C193.782,227.851 194.284,229.942 195.539,231.571C196.796,233.2 198.694,234.219 200.746,234.365L340.451,244.37C342.752,244.552 344.869,242.93 345.298,240.631L370.439,106.541C370.738,104.956 370.2,103.362 369.002,102.281C367.802,101.2 366.163,100.831 364.615,101.286ZM340.785,247.015C340.61,247.015 340.438,247.008 340.261,246.995L200.556,236.991C197.758,236.792 195.169,235.402 193.456,233.18C191.741,230.957 191.054,228.101 191.573,225.343L205.47,151.227C206.156,147.573 208.795,144.647 212.361,143.592L363.869,98.761C366.295,98.045 368.879,98.625 370.767,100.327C372.651,102.027 373.495,104.533 373.026,107.027L347.885,241.117C347.239,244.559 344.236,247.015 340.785,247.015Z" style="fill:rgb(68,75,77);fill-rule:nonzero;"/>
        <path d="M200.625,220.845L212.751,156.179C213.18,153.895 214.851,152.043 217.079,151.384L355.227,110.505C358.423,109.559 361.49,112.327 360.876,115.604L339.081,230.874C338.663,233.102 336.641,234.662 334.379,234.5L206.268,228.161C202.58,227.897 199.944,224.48 200.625,220.845Z" style="fill:rgb(68,75,77);fill-rule:nonzero;"/>
        <path d="M124.79,276.533L188.175,236.601C190.393,235.568 192.837,235.119 195.277,235.293L340.037,245.66C342.455,245.834 343.524,248.79 341.776,250.469L269.688,319.758C265.798,323.497 260.043,324.532 255.095,322.384L124.872,282.796C122.155,281.617 122.105,277.783 124.79,276.533Z" style="fill:white;fill-rule:nonzero;"/>
        <path d="M194.253,236.574C192.353,236.574 190.46,236.991 188.729,237.794L125.345,277.726C124.567,278.088 124.11,278.816 124.12,279.673C124.133,280.53 124.609,281.247 125.396,281.588L255.479,321.124C260.096,323.121 265.258,322.19 268.775,318.81L340.865,249.521C341.511,248.901 341.308,248.159 341.23,247.947C341.155,247.734 340.834,247.038 339.944,246.974L195.182,236.606C194.873,236.584 194.564,236.574 194.253,236.574ZM260.431,324.813C258.456,324.813 256.463,324.413 254.57,323.591L124.488,284.056C122.608,283.249 121.513,281.603 121.49,279.708C121.464,277.843 122.482,276.192 124.151,275.378L187.472,235.488C190.036,234.282 192.721,233.789 195.372,233.981L340.132,244.348C341.775,244.465 343.146,245.5 343.706,247.049C344.27,248.6 343.879,250.274 342.69,251.418L270.602,320.708C267.801,323.397 264.146,324.813 260.431,324.813Z" style="fill:rgb(68,75,77);fill-rule:nonzero;"/>
        <path d="M173.287,289.308L179.68,284.912C180.086,284.632 180.59,284.534 181.072,284.639L209.955,290.959C211.367,291.268 211.845,293.041 210.779,294.018L203.993,300.236C203.536,300.655 202.894,300.807 202.298,300.636L173.808,292.494C172.357,292.079 172.044,290.163 173.287,289.308Z" style="fill:rgb(68,75,77);fill-rule:nonzero;"/>
        <path d="M145.833,271.351L189.164,243.255C190.452,242.656 191.871,242.395 193.287,242.496L321.774,251.697C322.646,251.76 323.032,252.826 322.401,253.432L276.288,297.425C273.269,300.328 268.83,301.195 264.939,299.642L145.85,272.284C145.442,272.111 145.433,271.538 145.833,271.351Z" style="fill:white;fill-rule:nonzero;"/>
        <path d="M148.079,271.464L265.234,298.358C268.827,299.774 272.735,299.012 275.376,296.476L320.987,252.961L193.191,243.809C192.023,243.727 190.805,243.945 189.72,244.448L148.079,271.464ZM268.884,301.716C267.39,301.716 265.885,301.438 264.45,300.864L145.554,273.566C144.672,273.214 144.234,272.566 144.222,271.845C144.212,271.165 144.579,270.536 145.171,270.212L188.446,242.15C190.098,241.368 191.735,241.055 193.382,241.184L321.869,250.384C322.798,250.451 323.571,251.038 323.891,251.915C324.207,252.79 323.985,253.735 323.314,254.381L277.197,298.378C274.929,300.559 271.928,301.716 268.884,301.716Z" style="fill:rgb(68,75,77);fill-rule:nonzero;"/>
        <path d="M254.542,298.028L252.778,296.074L304.375,249.537L306.14,251.492L254.542,298.028Z" style="fill:rgb(68,75,77);fill-rule:nonzero;"/>
        <path d="M235.966,293.877L234.258,291.875L285.552,248.163L287.26,250.166L235.966,293.877Z" style="fill:rgb(68,75,77);fill-rule:nonzero;"/>
        <path d="M217.772,289.505L216.121,287.453L266.726,246.733L268.377,248.785L217.772,289.505Z" style="fill:rgb(68,75,77);fill-rule:nonzero;"/>
        <path d="M199.545,285.273L197.951,283.175L247.707,245.401L249.302,247.499L199.545,285.273Z" style="fill:rgb(68,75,77);fill-rule:nonzero;"/>
        <path d="M181.159,281.259L179.626,279.117L228.673,244.014L230.205,246.156L181.159,281.259Z" style="fill:rgb(68,75,77);fill-rule:nonzero;"/>
        <path d="M162.626,277.426L161.155,275.243L209.556,242.623L211.027,244.806L162.626,277.426Z" style="fill:rgb(68,75,77);fill-rule:nonzero;"/>
        <path d="M284.801,290.365L155.907,265.955L156.396,263.368L285.289,287.778L284.801,290.365Z" style="fill:rgb(68,75,77);fill-rule:nonzero;"/>
        <path d="M297.893,277.933L167.396,258.548L167.782,255.943L298.278,275.328L297.893,277.933Z" style="fill:rgb(68,75,77);fill-rule:nonzero;"/>
        <path d="M311.082,265.403L178.935,251.106L179.218,248.488L311.364,262.786L311.082,265.403Z" style="fill:rgb(68,75,77);fill-rule:nonzero;"/>
        <path d="M295.161,305.268L285.624,314.474L285.624,312.03L295.161,302.824L295.161,305.268Z" style="fill:rgb(68,75,77);fill-rule:nonzero;"/>
        <path d="M306.507,294.252L296.97,303.458L296.97,301.015L306.507,291.808L306.507,294.252Z" style="fill:rgb(68,75,77);fill-rule:nonzero;"/>
        <path d="M317.854,283.236L308.315,292.443L308.315,290L317.854,280.792L317.854,283.236Z" style="fill:rgb(68,75,77);fill-rule:nonzero;"/>
        <path d="M341.62,259.1C341.535,259.366 341.454,259.634 341.329,259.883C341.281,259.979 341.188,260.043 341.131,260.134C341.14,259.784 341.091,259.437 340.935,259.146C340.75,258.815 340.487,258.616 340.197,258.525C340.408,258.414 340.632,258.323 340.87,258.321C341.05,258.319 341.229,258.383 341.374,258.491C340.927,257.792 340.079,257.659 339.407,258.306C339.302,258.411 339.117,258.699 339.091,258.699C338.617,259.41 338.512,260.384 338.881,261.042C339.275,261.754 340.039,261.939 340.697,261.517L340.724,261.491C340.803,261.437 340.882,261.358 340.961,261.28C341.537,260.746 341.779,259.857 341.62,259.1Z" style="fill:rgb(68,75,77);fill-rule:nonzero;"/>
        <path d="M280.5,128.708C280.5,129.283 280.034,129.75 279.458,129.75C278.883,129.75 278.416,129.283 278.416,128.708C278.416,128.132 278.883,127.666 279.458,127.666C280.034,127.666 280.5,128.132 280.5,128.708Z" style="fill:rgb(35,31,32);fill-rule:nonzero;"/>
        <path d="M224.877,239.55L210.649,238.538C209.471,238.454 208.584,237.431 208.667,236.252C208.751,235.074 209.774,234.186 210.953,234.27L225.181,235.282C226.359,235.366 227.247,236.39 227.163,237.568C227.079,238.747 226.056,239.634 224.877,239.55Z" style="fill:white;fill-rule:nonzero;"/>
        <path d="M224.97,238.238C225.458,238.259 225.818,237.927 225.85,237.473C225.883,237.023 225.541,236.627 225.088,236.595L210.86,235.583C210.333,235.557 210.014,235.896 209.98,236.348C209.947,236.798 210.289,237.193 210.741,237.225L224.97,238.238ZM225.031,240.873C224.949,240.873 224.867,240.87 224.784,240.863L210.557,239.85C208.656,239.717 207.222,238.061 207.353,236.162C207.488,234.257 209.129,232.787 211.045,232.958L225.273,233.969C227.174,234.103 228.608,235.759 228.478,237.659C228.346,239.48 226.824,240.873 225.031,240.873Z" style="fill:rgb(68,75,77);fill-rule:nonzero;"/>
        <path d="M313.734,245.873L299.508,244.861C298.329,244.777 297.441,243.753 297.525,242.575C297.609,241.396 298.633,240.509 299.812,240.593L314.038,241.605C315.217,241.689 316.104,242.712 316.021,243.891C315.937,245.069 314.913,245.957 313.734,245.873Z" style="fill:white;fill-rule:nonzero;"/>
        <path d="M313.828,244.56C314.368,244.582 314.677,244.249 314.708,243.796C314.741,243.346 314.399,242.95 313.946,242.918L299.718,241.905C299.242,241.88 298.87,242.217 298.839,242.67C298.806,243.12 299.147,243.516 299.6,243.548L313.828,244.56ZM313.89,247.194C313.808,247.194 313.726,247.192 313.643,247.186L299.415,246.174C297.515,246.04 296.079,244.384 296.211,242.483C296.35,240.58 297.998,239.112 299.903,239.279L314.132,240.292C316.032,240.426 317.467,242.083 317.336,243.983C317.204,245.802 315.683,247.194 313.89,247.194Z" style="fill:rgb(68,75,77);fill-rule:nonzero;"/>
        <path d="M259.54,335.088C258.883,334.931 258.251,334.693 257.618,334.404L128.17,290.508C127.591,290.219 126.443,288.686 125.073,285.684C125.469,285.315 125.073,285.684 125.073,285.684L254.506,326.566C257.028,327.363 258.855,329.557 259.181,332.183L259.54,335.088Z" style="fill:rgb(68,75,77);fill-rule:nonzero;"/>
        <path d="M359.226,299.76C362.862,292.844 358.954,282.587 349.28,270.691C355.941,279.898 358.438,287.675 355.663,292.954C347.07,309.299 290.611,296.527 229.56,264.427C168.509,232.328 125.983,193.056 134.577,176.711C139.401,167.537 164.953,169.528 194.286,177.291C159.472,166.614 133.114,165.913 126.951,177.635C117.235,196.114 161.354,238.434 225.496,272.158C289.637,305.882 349.51,318.24 359.226,299.76Z" style="fill:white;fill-rule:nonzero;"/>
        <path d="M359.226,303.112C362.862,296.195 358.954,285.938 349.28,274.042C355.941,283.25 358.438,291.027 355.663,296.306C347.07,312.65 290.611,299.878 229.56,267.779C168.509,235.679 125.983,196.407 134.577,180.063C139.401,170.889 164.953,172.879 194.286,180.643C159.472,169.966 133.114,169.265 126.951,180.987C117.235,199.466 161.354,241.785 225.496,275.509C289.637,309.233 349.51,321.592 359.226,303.112Z" style="fill:rgb(0,177,191);fill-rule:nonzero;"/>
        <path d="M122.808,195.782C125.71,200.163 128.503,204.452 131.478,208.59C134.437,212.734 137.537,216.734 140.804,220.595C144.071,224.455 147.498,228.179 151.091,231.787C154.676,235.409 158.438,238.878 162.271,242.475C157.396,240.493 152.881,237.713 148.698,234.508C144.523,231.289 140.692,227.607 137.285,223.569C133.877,219.532 130.884,215.142 128.406,210.489C125.944,205.831 123.955,200.918 122.808,195.782Z" style="fill:rgb(0,177,191);fill-rule:nonzero;"/>
        <path d="M362.564,303.507C362.665,306.145 361.562,308.876 359.797,311.016C358.046,313.193 355.609,314.832 353.056,315.908C347.842,318.044 342.462,318.396 337.198,318.509C331.905,318.532 326.657,317.945 321.538,316.933C316.415,315.916 311.409,314.522 306.507,312.67C311.752,312.633 316.901,313.041 322.004,313.339C327.104,313.668 332.155,313.916 337.174,313.902C342.172,313.812 347.27,313.735 351.85,312.504C356.36,311.295 360.746,308.489 362.564,303.507Z" style="fill:rgb(0,177,191);fill-rule:nonzero;"/>
        <g transform="matrix(0.24,0,0,0.24,-35.0635,20.0753)">
            <path d="M735.39,1517.85C735.965,1510.16 736.693,1501.06 737.566,1490.55C740.319,1457.37 741.609,1436.74 741.609,1428.69C741.609,1419.49 740.07,1410.56 737.001,1401.91C736.879,1401.56 736.752,1401.22 736.621,1400.88C727.036,1375.96 708.945,1363.67 682.585,1363.67C662.141,1363.67 645.706,1372.26 634.024,1390.76C633.605,1391.42 633.206,1392.1 632.825,1392.78C629.563,1398.65 625.045,1411.92 622.544,1433.34C620.92,1447.25 619.643,1462.53 618.725,1479.19C617.845,1495.18 617.168,1509.23 616.694,1521.36C616.185,1534.37 615.962,1540.95 615.962,1541.09C615.962,1560.95 618.137,1575.83 621.292,1585.85C627.501,1605.58 638.525,1617.38 650.395,1624.14C650.395,1624.14 650.395,1624.14 650.395,1624.14C660.276,1629.77 672.489,1633.32 687.385,1633.32C693.218,1633.32 697.683,1633.37 700.778,1633.49C702.723,1633.56 704.167,1633.61 705.102,1633.72C708.699,1634.15 711.796,1634.32 714.385,1634.32C714.385,1634.32 714.385,1634.32 714.385,1634.32C732.186,1634.32 745.154,1628.51 754.469,1620.65C764.067,1612.54 769.872,1603.37 773.072,1593.99C776.214,1584.77 776.809,1578.06 776.809,1574.29C776.809,1554.94 769.115,1539.55 754.01,1527.99C748.053,1523.42 741.836,1520.08 735.39,1517.85Z" style="fill:rgb(68,75,77);fill-rule:nonzero;"/>
            <path d="M701.71,1493.33C701.466,1493.68 701.225,1494.04 700.986,1494.39C691.803,1508.17 687.362,1523.03 687.362,1538.89C687.362,1557.54 692.655,1573.48 702.355,1587.01C716.67,1607.16 737.379,1621.79 765.348,1629.58C777.243,1632.91 787.616,1634.32 796.385,1634.32C796.385,1634.32 796.385,1634.32 796.385,1634.32C797.316,1634.32 798.24,1634.3 799.157,1634.26C803.55,1635.26 807.901,1635.72 812.185,1635.72C812.185,1635.72 812.185,1635.72 812.185,1635.72C821.06,1635.72 831.265,1633.61 842.34,1627.77C862.753,1617.25 874.967,1599.4 875.009,1572.03C875.009,1572.09 875.207,1547.43 875.207,1547.43C875.208,1547.32 875.209,1547.21 875.209,1547.09C875.209,1510.74 870.041,1482.66 861.411,1462.58C861.408,1462.58 861.406,1462.57 861.404,1462.56C844.723,1423.79 813.547,1402.87 765.985,1402.87C757.935,1402.87 750.096,1403.72 742.463,1405.39C731.071,1407.75 719.277,1413.78 708.548,1425.66C708.504,1425.71 708.46,1425.76 708.417,1425.81C699.858,1435.37 694.362,1447.78 694.362,1463.89C694.362,1475.09 696.815,1484.89 701.71,1493.33ZM791.473,1538.92C787.147,1538.88 782.791,1538.18 778.56,1536.77C779.152,1536.97 779.826,1537.52 780.785,1537.52C777.944,1537.52 775.368,1537.72 773.2,1538.84C772.599,1539.15 772.021,1539.46 771.525,1539.83C775.346,1544.39 780.987,1547.11 787.795,1549C787.826,1549.01 787.857,1549.02 787.888,1549.03C789.176,1549.39 790.391,1549.72 791.537,1549.99L791.562,1546.9C791.56,1544.16 791.532,1541.5 791.473,1538.92ZM770.993,1539.01L770.909,1539.06L771.005,1539.18C771.007,1539.12 771.008,1539.06 771.008,1539L770.993,1539.01Z" style="fill:rgb(68,75,77);fill-rule:nonzero;"/>
            <path d="M854.612,1462.74L843.881,1417.29C854.759,1411.85 864.073,1410.27 871.185,1410.27C880.629,1410.27 889.038,1412.48 896.537,1416.36C898.072,1417.16 899.652,1418.07 901.266,1419.11C905.552,1418.43 910.121,1418.07 914.985,1418.07C931.193,1418.07 945.228,1422.31 957.312,1429.99C967.836,1436.68 976.636,1445.21 983.693,1455.61C989.977,1464.87 994.649,1474.8 997.736,1485.38C1000.8,1495.89 1002.21,1505.88 1002.21,1515.29C1002.21,1534.93 997.954,1551.72 990.428,1565.9C983.048,1579.8 973.63,1591.21 962.401,1600.3C952.095,1608.64 941.312,1614.84 930.162,1619.08C930.193,1622.22 930.209,1625.63 930.209,1629.29C930.209,1649.51 923.37,1665.37 911.769,1677.63C911.698,1677.71 911.627,1677.78 911.556,1677.86C901.644,1688.18 887.235,1695.72 866.585,1695.72C866.585,1695.72 866.585,1695.72 866.585,1695.72C856.113,1695.72 845.765,1693.08 835.712,1687.22C826.318,1681.74 818.939,1674.44 813.46,1665.44C812.254,1663.46 811.215,1661.38 810.353,1659.23C810.353,1659.23 809.153,1656.23 809.153,1656.23C806.463,1649.5 804.162,1639.28 804.162,1625.29C804.162,1586.33 804.435,1555.69 804.974,1533.38C805.549,1509.6 806.578,1491.86 807.943,1480.15C810.089,1461.74 814.207,1449.52 817.821,1442.85C824.603,1430.35 833.708,1422.17 843.881,1417.09C826.532,1425.76 817.424,1445.22 821.881,1464.1C825.219,1478.25 835.516,1489.28 848.626,1493.92C848.89,1490.62 849.177,1487.64 849.485,1484.99C849.525,1484.65 849.565,1484.31 849.606,1483.98C849.514,1483.72 849.424,1483.47 849.338,1483.21L820.762,1454.5L849.269,1483C848.948,1482.03 848.662,1481.04 848.411,1480.04C848.558,1480.63 848.79,1481.14 849.011,1481.62C849.215,1482.06 849.413,1482.61 849.704,1483.19C850.945,1473.3 852.572,1466.51 854.585,1462.79L854.612,1462.74ZM902.677,1512.18C900.625,1516.95 898.599,1522.75 896.601,1529.56L911.118,1532.87C912.178,1531.96 913.2,1530.97 914.185,1529.89C914.69,1529.17 915.158,1528.44 915.589,1527.69L902.677,1512.18Z" style="fill:rgb(68,75,77);fill-rule:nonzero;"/>
            <path d="M1056.47,1528.84L1056.65,1520.51C1061.09,1517.84 1065.32,1514.45 1069.33,1510.28C1081.16,1497.98 1086.01,1484.28 1086.01,1470.09C1086.01,1452.6 1079.66,1438.57 1068.15,1427.52C1067.02,1426.44 1065.83,1425.42 1064.59,1424.47L1061.19,1421.87C1060.58,1421.4 1059.95,1420.95 1059.31,1420.52C1058.69,1405.71 1055.05,1394.58 1050.57,1386.67C1043.25,1373.74 1033.88,1365.97 1024.4,1361.45C1014.6,1356.77 1005.91,1355.27 998.785,1355.27C993.097,1355.27 986.106,1356.25 978.049,1359.33C970.978,1362.03 961.399,1367.79 952.041,1379.86C946.568,1386.91 939.91,1400.78 936.383,1422.91C934.297,1436.01 932.595,1450.5 931.3,1466.4C930.047,1481.78 929.182,1495.62 928.694,1507.94C928.191,1520.66 927.962,1528.25 927.962,1530.69C927.962,1549.75 930.609,1565.35 934.991,1577.64C940.17,1592.16 946.952,1603.41 954.495,1611.86C962.822,1621.18 971.393,1627.71 979.72,1632.06C988.661,1636.73 996.472,1639.3 1002.88,1640.5C1010.95,1642.01 1015.25,1642.12 1015.58,1642.12C1015.59,1642.12 1015.59,1642.12 1015.59,1642.12C1024.92,1642.12 1034.41,1640.11 1043.93,1635.62C1053.86,1630.94 1062.12,1624.13 1068.68,1615.13C1075.92,1605.2 1080.21,1593.18 1080.21,1578.69C1080.21,1566.67 1076.87,1554.67 1069.17,1543.02C1065.62,1537.65 1061.4,1532.9 1056.47,1528.84Z" style="fill:rgb(68,75,77);fill-rule:nonzero;"/>
            <path d="M1078.99,1631.72C1089.92,1631.72 1102.59,1629.18 1116.69,1622.86C1128.16,1617.72 1139.24,1610.51 1149.82,1601.02C1160.63,1591.33 1169.7,1579.57 1176.88,1565.63C1184.54,1550.73 1188.61,1534.06 1188.61,1515.49C1188.61,1499.13 1185.03,1482.94 1177.58,1466.99C1170.45,1451.72 1161.47,1439.25 1151.02,1429.3C1135.68,1414.69 1119.29,1408.22 1103.06,1407.33C1102.31,1407.29 1101.55,1407.27 1100.79,1407.27C1099.35,1407.27 1095.8,1407.4 1090.23,1408.3C1083.91,1409.32 1076.59,1411.68 1068.64,1416.37C1064.57,1418.77 1060.56,1421.81 1056.76,1425.61C1048.53,1430.37 1039.7,1437.7 1031,1448.6C1021.89,1460.01 1013.66,1473.54 1006.5,1489.3C998.068,1507.88 994.362,1525.03 994.362,1540.49C994.362,1553.59 997.032,1566.71 1002.66,1579.81C1008.73,1593.93 1017.74,1605.67 1029.62,1615.09C1043.17,1625.81 1059.51,1631.72 1078.99,1631.72L1078.99,1631.72ZM1086.69,1515.72C1085.71,1517.54 1084.76,1519.42 1083.84,1521.36L1100.25,1520.67C1097.56,1518.73 1094.48,1517.21 1090.91,1516.27L1086.69,1515.72Z" style="fill:rgb(68,75,77);fill-rule:nonzero;"/>
            <path d="M1165.41,1462.74L1154.68,1417.29C1165.56,1411.85 1174.87,1410.27 1181.99,1410.27C1191.43,1410.27 1199.84,1412.48 1207.34,1416.36C1208.87,1417.16 1210.45,1418.07 1212.07,1419.11C1216.35,1418.43 1220.92,1418.07 1225.79,1418.07C1241.99,1418.07 1256.03,1422.31 1268.11,1429.99C1278.64,1436.68 1287.44,1445.21 1294.49,1455.61C1300.78,1464.87 1305.45,1474.8 1308.54,1485.38C1311.6,1495.89 1313.01,1505.88 1313.01,1515.29C1313.01,1534.93 1308.75,1551.72 1301.23,1565.9C1293.85,1579.8 1284.43,1591.21 1273.2,1600.3C1262.89,1608.64 1252.11,1614.84 1240.96,1619.08C1240.99,1622.22 1241.01,1625.63 1241.01,1629.29C1241.01,1649.51 1234.17,1665.37 1222.57,1677.63C1222.5,1677.71 1222.43,1677.78 1222.36,1677.86C1212.44,1688.18 1198.04,1695.72 1177.38,1695.72C1177.38,1695.72 1177.38,1695.72 1177.38,1695.72C1166.91,1695.72 1156.57,1693.08 1146.51,1687.22C1137.12,1681.74 1129.74,1674.44 1124.26,1665.44C1123.05,1663.46 1122.02,1661.38 1121.15,1659.23C1121.15,1659.23 1119.95,1656.23 1119.95,1656.23C1117.26,1649.5 1114.96,1639.28 1114.96,1625.29C1114.96,1586.33 1115.24,1555.69 1115.77,1533.38C1116.35,1509.6 1117.38,1491.86 1118.74,1480.15C1120.89,1461.74 1125.01,1449.52 1128.62,1442.85C1135.4,1430.35 1144.51,1422.17 1154.68,1417.09C1137.33,1425.76 1128.22,1445.22 1132.68,1464.1C1136.02,1478.25 1146.32,1489.28 1159.43,1493.92C1159.69,1490.62 1159.98,1487.64 1160.29,1484.99C1160.33,1484.65 1160.37,1484.31 1160.41,1483.98C1160.31,1483.72 1160.22,1483.47 1160.14,1483.21L1131.56,1454.5L1160.07,1483C1159.75,1482.03 1159.46,1481.04 1159.21,1480.04C1159.36,1480.63 1159.59,1481.14 1159.81,1481.62C1160.02,1482.06 1160.21,1482.61 1160.5,1483.19C1161.75,1473.3 1163.37,1466.51 1165.38,1462.79L1165.41,1462.74ZM1213.48,1512.18C1211.42,1516.95 1209.4,1522.75 1207.4,1529.56L1221.92,1532.87C1222.98,1531.96 1224,1530.97 1224.99,1529.89C1225.49,1529.17 1225.96,1528.44 1226.39,1527.69L1213.48,1512.18Z" style="fill:rgb(68,75,77);fill-rule:nonzero;"/>
            <path d="M1412.93,1621.19C1417.54,1622.37 1422.23,1622.92 1426.99,1622.92C1434.33,1622.92 1440.93,1621.81 1446.88,1619.75C1449.04,1621.5 1451.31,1623.09 1453.66,1624.52C1464.62,1631.39 1475.28,1633.92 1484.99,1633.92C1484.99,1633.92 1484.99,1633.92 1484.99,1633.92C1505.97,1633.92 1520.39,1625.77 1530.19,1614.36C1537.65,1605.69 1543.11,1594.68 1545.37,1580.8C1546.58,1573.36 1547.21,1565.46 1547.21,1557.09C1547.21,1556.97 1547.21,1556.84 1547.21,1556.71L1547.01,1534.89C1547,1530.27 1546.79,1524.21 1546.33,1516.74C1545.82,1508.37 1544.65,1499.57 1542.77,1490.35C1540.62,1479.8 1537.36,1469.94 1533.06,1460.76C1527.3,1448.44 1519.33,1438.37 1509.37,1430.38C1497.32,1420.71 1482.37,1415.07 1463.99,1415.07C1453,1415.07 1443.24,1417.33 1434.59,1421.4C1432.23,1420.72 1429.86,1420.2 1427.51,1419.81C1426.73,1419.69 1425.95,1419.58 1425.16,1419.5C1420.95,1419.06 1417.29,1418.87 1414.18,1418.87C1411.06,1418.87 1407.67,1419.13 1404.04,1419.74C1402.48,1418.77 1400.89,1417.89 1399.29,1417.09C1388.38,1411.63 1379.35,1410.27 1372.99,1410.27C1358.57,1410.27 1346.99,1414.66 1337.69,1421.63C1329.68,1427.64 1320.75,1438.31 1315.94,1456.53C1313.84,1464.5 1312.11,1476.03 1311.23,1491.18C1310.53,1503.32 1310.16,1519.42 1310.16,1539.49C1310.16,1550.51 1310.31,1558.79 1310.56,1564.35C1310.57,1566.25 1310.57,1567.61 1310.51,1568.42C1310.51,1568.42 1310.31,1570.82 1310.31,1570.82C1310.21,1571.98 1310.16,1573.13 1310.16,1574.29C1310.16,1590.47 1315.35,1602.96 1323.22,1612.58C1330.32,1621.26 1338.54,1627.17 1347.42,1630.92C1357.02,1634.98 1365.01,1636.12 1370.99,1636.12C1370.99,1636.12 1370.99,1636.12 1370.99,1636.12C1382.86,1636.12 1393.49,1633.12 1402.96,1627.4C1406.55,1625.66 1409.88,1623.59 1412.93,1621.19Z" style="fill:rgb(68,75,77);fill-rule:nonzero;"/>
            <path d="M1486.51,1493.33C1486.27,1493.68 1486.03,1494.04 1485.79,1494.39C1476.6,1508.17 1472.16,1523.03 1472.16,1538.89C1472.16,1557.54 1477.45,1573.48 1487.15,1587.01C1501.47,1607.16 1522.18,1621.79 1550.15,1629.58C1562.04,1632.91 1572.42,1634.32 1581.18,1634.32C1581.18,1634.32 1581.18,1634.32 1581.18,1634.32C1582.12,1634.32 1583.04,1634.3 1583.96,1634.26C1588.35,1635.26 1592.7,1635.72 1596.99,1635.72C1596.99,1635.72 1596.99,1635.72 1596.99,1635.72C1605.86,1635.72 1616.07,1633.61 1627.14,1627.77C1647.55,1617.25 1659.77,1599.4 1659.81,1572.03C1659.81,1572.09 1660.01,1547.43 1660.01,1547.43C1660.01,1547.32 1660.01,1547.21 1660.01,1547.09C1660.01,1510.74 1654.84,1482.66 1646.21,1462.58C1646.21,1462.58 1646.21,1462.57 1646.2,1462.56C1629.52,1423.79 1598.35,1402.87 1550.79,1402.87C1542.74,1402.87 1534.9,1403.72 1527.26,1405.39C1515.87,1407.75 1504.08,1413.78 1493.35,1425.66C1493.3,1425.71 1493.26,1425.76 1493.22,1425.81C1484.66,1435.37 1479.16,1447.78 1479.16,1463.89C1479.16,1475.09 1481.62,1484.89 1486.51,1493.33ZM1576.27,1538.92C1571.95,1538.88 1567.59,1538.18 1563.36,1536.77C1563.95,1536.97 1564.63,1537.52 1565.59,1537.52C1562.74,1537.52 1560.17,1537.72 1558,1538.84C1557.4,1539.15 1556.82,1539.46 1556.33,1539.83C1560.15,1544.39 1565.79,1547.11 1572.6,1549C1572.63,1549.01 1572.66,1549.02 1572.69,1549.03C1573.98,1549.39 1575.19,1549.72 1576.34,1549.99L1576.36,1546.9C1576.36,1544.16 1576.33,1541.5 1576.27,1538.92ZM1555.79,1539.01L1555.71,1539.06L1555.81,1539.18C1555.81,1539.12 1555.81,1539.06 1555.81,1539L1555.79,1539.01Z" style="fill:rgb(68,75,77);fill-rule:nonzero;"/>
            <path d="M1589.74,1562.27C1588.66,1566.97 1588.36,1570.87 1588.36,1573.89C1588.36,1589.04 1593.4,1603.43 1604.95,1616.5C1617.17,1630.31 1632.76,1637.52 1651.99,1637.52C1651.99,1637.52 1651.99,1637.52 1651.99,1637.52C1666.43,1637.52 1678.54,1633.23 1688.65,1625.8C1697.88,1619.01 1704.64,1610.62 1709.16,1600.82C1713.5,1591.42 1715.41,1582.13 1715.41,1573.09C1715.41,1570.76 1715.3,1568.55 1715.1,1566.46C1715.69,1564.03 1717.06,1560.48 1718.85,1555.7C1720.99,1551.07 1723.42,1546.66 1726.15,1542.45C1726.86,1541.64 1727.62,1540.93 1728.45,1540.3C1732.83,1539.14 1737.58,1537.51 1742.66,1535.34C1754.41,1530.3 1764.13,1522.01 1771.27,1509.84C1771.74,1509.04 1772.18,1508.23 1772.59,1507.4L1772.94,1506.7C1777.65,1497.78 1780.01,1488.23 1780.01,1478.09C1780.01,1459.31 1773.38,1444.14 1761.36,1432.12C1749.5,1420.26 1734.26,1413.47 1714.99,1413.47C1714.71,1413.47 1710.31,1413.64 1701.92,1415.02C1697.51,1415.74 1692.37,1417.07 1686.56,1419.19C1677.52,1413.72 1667.16,1411.07 1655.59,1411.07C1641.47,1411.07 1627.87,1415.82 1615.57,1427.2C1615.18,1427.57 1614.79,1427.94 1614.41,1428.32C1608.28,1434.45 1601.45,1444.7 1597.16,1460.7C1592.48,1478.15 1589.56,1508.12 1589.56,1550.69C1589.56,1550.92 1589.56,1551.14 1589.57,1551.37L1589.74,1562.27ZM1590.05,1561.01C1590.11,1560.76 1590.18,1560.5 1590.25,1560.25C1590.32,1560 1590.39,1559.74 1590.46,1559.49C1590.33,1559.94 1590.17,1560.42 1590.05,1561.01Z" style="fill:rgb(68,75,77);fill-rule:nonzero;"/>
            <path d="M1828.07,1528.84L1828.26,1520.51C1832.69,1517.84 1836.92,1514.45 1840.93,1510.28C1852.76,1497.98 1857.61,1484.28 1857.61,1470.09C1857.61,1452.6 1851.26,1438.57 1839.75,1427.52C1838.62,1426.44 1837.43,1425.42 1836.19,1424.47L1832.79,1421.87C1832.18,1421.4 1831.55,1420.95 1830.91,1420.52C1830.29,1405.71 1826.65,1394.58 1822.17,1386.67C1814.85,1373.74 1805.48,1365.97 1796,1361.45C1786.2,1356.77 1777.51,1355.27 1770.38,1355.27C1764.7,1355.27 1757.71,1356.25 1749.65,1359.33C1742.58,1362.03 1733,1367.79 1723.64,1379.86C1718.17,1386.91 1711.51,1400.78 1707.98,1422.91C1705.9,1436.01 1704.19,1450.5 1702.9,1466.4C1701.65,1481.78 1700.78,1495.62 1700.29,1507.94C1699.79,1520.66 1699.56,1528.25 1699.56,1530.69C1699.56,1549.75 1702.21,1565.35 1706.59,1577.64C1711.77,1592.16 1718.55,1603.41 1726.1,1611.86C1734.42,1621.18 1742.99,1627.71 1751.32,1632.06C1760.26,1636.73 1768.07,1639.3 1774.48,1640.5C1782.55,1642.01 1786.85,1642.12 1787.18,1642.12C1787.18,1642.12 1787.18,1642.12 1787.18,1642.12C1796.53,1642.12 1806.01,1640.11 1815.53,1635.62C1825.46,1630.94 1833.72,1624.13 1840.28,1615.13C1847.53,1605.2 1851.81,1593.18 1851.81,1578.69C1851.81,1566.67 1848.47,1554.67 1840.77,1543.02C1837.22,1537.65 1833,1532.9 1828.07,1528.84Z" style="fill:rgb(68,75,77);fill-rule:nonzero;"/>
        </g>
        <g transform="matrix(0.24,0,0,0.24,-35.0635,20.0753)">
            <text x="652.185px" y="1589.29px" style="font-family:'LittleDaisy', 'Little Daisy';font-size:200px;fill:white;">L<tspan x="727.385px " y="1589.29px ">a</tspan>pt<tspan x="1033.59px " y="1589.29px ">o</tspan>p mart</text>
        </g>
    </g>
</svg>
